<svg width="140" height="140" viewBox="0 0 140 140" fill="none" xmlns="http://www.w3.org/2000/svg">
<path fill-rule="evenodd" clip-rule="evenodd" d="M40.9442 33.9256C31.0755 43.6377 23 51.8822 23 52.2453C23.0012 53.0972 59.0732 87.2381 59.9733 87.2381C60.3475 87.2381 60.6534 82.4489 60.6534 76.5949V65.9517L68.596 66.629C83.1549 67.872 92.6648 72.8753 97.3867 81.7774C100.743 88.1051 101.004 103.191 97.8598 109.13C94.6851 115.127 87.5968 122.296 82.4218 124.741C78.6871 126.507 78.4106 126.819 81.0804 126.251C99.2247 122.394 115.603 102.795 116.859 83.437C118.717 54.7918 102.172 38.7147 66.2426 34.2538L60.6534 33.5589V24.9024C60.6534 20.14 60.2569 16.2494 59.7709 16.2552C59.285 16.261 50.8141 24.2123 40.9442 33.9256Z" fill="#414141"/>
</svg>
