<svg width="140" height="140" viewBox="0 0 140 140" fill="none" xmlns="http://www.w3.org/2000/svg">
<path fill-rule="evenodd" clip-rule="evenodd" d="M38.0951 23.2654C27.4305 26.0632 19.8023 30.1387 12.5512 36.9128C-0.789988 49.3736 -3.68123 65.4619 4.76969 80.2152C6.11158 82.5588 7.87862 85.0323 8.69622 85.7116C11.0611 87.6757 10.4418 90.7712 6.08092 98.779C3.8407 102.893 2.00723 106.692 2.00723 107.218C2.00723 109.894 18.0567 106.694 24.899 102.656L28.8838 100.304L35.119 102.296C44.3477 105.244 62.2255 105.893 71.7434 103.623C88.9733 99.5155 102.471 89.9978 108.526 77.6864C111.415 71.8115 111.87 69.832 111.856 63.1888C111.844 56.916 111.302 54.3217 108.924 49.1404C103.405 37.1164 90.2733 27.4227 73.7864 23.2019C63.6124 20.5975 48.1608 20.6251 38.0951 23.2654ZM118.812 66.7068C115.891 88.1452 99.3712 104.054 73.7445 110.109L65.8822 111.966L70.0009 114.07C81.477 119.932 98.2664 121.511 110.987 117.926C116.623 116.337 117.5 116.316 119.674 117.708C122.596 119.579 132.281 122.5 135.564 122.5C138.697 122.5 138.564 120.839 134.867 113.804C131.335 107.084 131.169 105.884 133.497 103.955C134.43 103.184 136.264 100.25 137.575 97.4369C140.811 90.4888 140.808 81.8673 137.567 74.9315C135.105 69.6632 128.163 62.4646 122.935 59.7588L119.968 58.2223L118.812 66.7068Z" fill="#414141"/>
</svg>
