<svg width="18" height="18" viewBox="0 0 18 18" fill="none" xmlns="http://www.w3.org/2000/svg">
<g clip-path="url(#clip0_435_1046)">
<path fill-rule="evenodd" clip-rule="evenodd" d="M11.9933 3.85583C11.0471 3.56437 10.0419 3.40747 9.00002 3.40747C5.14393 3.40747 1.7899 5.55682 0.0703676 8.72277C-0.0234559 8.89553 -0.0234559 9.1045 0.0703676 9.27727C0.813971 10.6464 1.86321 11.8253 3.12652 12.7226L5.0874 10.7617C4.84502 10.2243 4.71013 9.6279 4.71013 9.00003C4.71013 6.63082 6.63075 4.71015 8.99999 4.71015C9.62786 4.71015 10.2242 4.84504 10.7617 5.08742L11.9933 3.85583ZM5.62057 11.6428C6.40581 12.6455 7.62764 13.2899 8.99999 13.2899C11.3692 13.2899 13.2899 11.3693 13.2899 9.00003C13.2899 7.62768 12.6455 6.40585 11.6427 5.6206L13.0263 4.23699C15.1196 5.14203 16.848 6.73126 17.9296 8.72277C18.0235 8.89553 18.0235 9.1045 17.9296 9.27727C16.2101 12.4432 12.8561 14.5926 8.99999 14.5926C7.17826 14.5926 5.46861 14.1129 3.99042 13.2729L5.62057 11.6428Z" fill="#414141"/>
<path fill-rule="evenodd" clip-rule="evenodd" d="M9.035 6.81412C9.02333 6.81393 9.01164 6.81384 8.99993 6.81384C8.81946 6.81384 8.64419 6.83587 8.47646 6.87708C8.55481 6.96777 8.6191 7.07095 8.66586 7.18326L9.035 6.81412ZM7.18313 8.66599C7.07083 8.61924 6.96764 8.55495 6.87696 8.47658C6.83575 8.64431 6.81372 8.81958 6.81372 9.00005C6.81372 9.01176 6.81381 9.02345 6.814 9.03512L7.18313 8.66599ZM7.13001 10.1333C7.5134 10.7646 8.20741 11.1862 8.9999 11.1862C10.2073 11.1862 11.1861 10.2074 11.1861 9.00005C11.1861 8.20756 10.7644 7.51354 10.1332 7.13014L7.13001 10.1333Z" fill="#414141"/>
<rect x="15.6616" y="1.48035" width="2" height="20.7349" transform="rotate(45 15.6616 1.48035)" fill="#414141"/>
</g>
<defs>
<clipPath id="clip0_435_1046">
<rect width="18" height="18" fill="white"/>
</clipPath>
</defs>
</svg>
