<svg width="18" height="18" viewBox="0 0 18 18" fill="none" xmlns="http://www.w3.org/2000/svg">
<g clip-path="url(#clip0_258_966)">
<path d="M17.9296 9.27727C18.0235 9.1045 18.0235 8.89553 17.9296 8.72277C16.2101 5.55679 12.8561 3.40747 9.00002 3.40747C5.14393 3.40747 1.7899 5.55682 0.0703676 8.72277C-0.0234559 8.89553 -0.0234559 9.1045 0.0703676 9.27727C1.78993 12.4432 5.14387 14.5926 8.99999 14.5926C12.8561 14.5926 16.2101 12.4432 17.9296 9.27727ZM8.99999 13.2899C6.63075 13.2899 4.71013 11.3692 4.71013 9.00003C4.71013 6.63082 6.63075 4.71015 8.99999 4.71015C11.3692 4.71015 13.2899 6.63079 13.2899 9.00003C13.2899 11.3693 11.3692 13.2899 8.99999 13.2899Z" fill="#414141"/>
<path d="M8.99993 6.81384C8.81946 6.81384 8.64419 6.83587 8.47646 6.87708C8.64825 7.0759 8.75243 7.33481 8.75243 7.6182C8.75243 8.24467 8.24457 8.75255 7.61807 8.75255C7.33469 8.75255 7.07578 8.6484 6.87696 8.47658C6.83575 8.64431 6.81372 8.81958 6.81372 9.00005C6.81372 10.2075 7.79251 11.1862 8.9999 11.1862C10.2073 11.1862 11.1861 10.2074 11.1861 9.00005C11.1861 7.79267 10.2073 6.81384 8.99993 6.81384Z" fill="#414141"/>
</g>
<defs>
<clipPath id="clip0_258_966">
<rect width="18" height="18" fill="white"/>
</clipPath>
</defs>
</svg>
