<svg width="800" height="800" viewBox="0 0 800 800" fill="none" xmlns="http://www.w3.org/2000/svg">
<g clip-path="url(#clip0_294_903)">
<mask id="mask0_294_903" style="mask-type:luminance" maskUnits="userSpaceOnUse" x="0" y="0" width="800" height="800">
<path d="M800 0H0V800H800V0Z" fill="white"/>
</mask>
<g mask="url(#mask0_294_903)">
<path d="M578.683 666.667H200.004C163.185 666.667 133.337 636.82 133.337 600V333.333H264.325C286.615 333.333 307.43 322.193 319.795 303.647L403.65 177.863C422.196 150.043 453.42 133.333 486.856 133.333H493.99C514.586 133.333 530.253 151.829 526.87 172.147L500.003 333.333H618.683C660.753 333.333 692.306 371.823 684.056 413.073L644.056 613.073C637.823 644.237 610.463 666.667 578.683 666.667Z" fill="#9C9C9C" stroke="#9C9C9C" stroke-width="83.3333" stroke-linecap="round" stroke-linejoin="round"/>
<path d="M266.67 333.333V666.667V333.333Z" fill="#9C9C9C"/>
<path d="M266.67 333.333V666.667" stroke="#9C9C9C" stroke-width="83.3333"/>
</g>
<path d="M225 291.667C225 291.667 259 291.392 270 290.5C281 289.608 308 246 308 246V708H225V291.667Z" fill="white"/>
</g>
<defs>
<clipPath id="clip0_294_903">
<rect width="800" height="800" fill="white"/>
</clipPath>
</defs>
</svg>
