<svg width="94" height="19" viewBox="0 0 94 19" fill="none" xmlns="http://www.w3.org/2000/svg">
<path d="M1.376 18C1.2 18 1.056 17.944 0.944 17.832C0.832 17.72 0.776 17.576 0.776 17.4V1.8C0.776 1.624 0.832 1.48 0.944 1.368C1.056 1.256 1.2 1.2 1.376 1.2H7.4C9 1.2 10.336 1.456 11.408 1.968C12.48 2.464 13.296 3.2 13.856 4.176C14.432 5.136 14.736 6.328 14.768 7.752C14.784 8.456 14.792 9.072 14.792 9.6C14.792 10.128 14.784 10.736 14.768 11.424C14.72 12.912 14.424 14.144 13.88 15.12C13.336 16.096 12.536 16.824 11.48 17.304C10.424 17.768 9.104 18 7.52 18H1.376ZM4.592 14.904H7.4C8.2 14.904 8.856 14.784 9.368 14.544C9.88 14.304 10.256 13.928 10.496 13.416C10.752 12.888 10.888 12.208 10.904 11.376C10.92 10.912 10.928 10.496 10.928 10.128C10.944 9.76 10.944 9.392 10.928 9.024C10.928 8.656 10.92 8.248 10.904 7.8C10.872 6.6 10.56 5.72 9.968 5.16C9.392 4.584 8.496 4.296 7.28 4.296H4.592V14.904ZM18.3916 18C18.2156 18 18.0716 17.944 17.9596 17.832C17.8476 17.72 17.7916 17.576 17.7916 17.4V1.8C17.7916 1.624 17.8476 1.48 17.9596 1.368C18.0716 1.256 18.2156 1.2 18.3916 1.2H21.1036C21.2796 1.2 21.4236 1.256 21.5356 1.368C21.6476 1.48 21.7036 1.624 21.7036 1.8V17.4C21.7036 17.576 21.6476 17.72 21.5356 17.832C21.4236 17.944 21.2796 18 21.1036 18H18.3916ZM31.2928 18.24C29.7568 18.24 28.4688 18.016 27.4288 17.568C26.4048 17.12 25.6288 16.536 25.1008 15.816C24.5728 15.096 24.2928 14.328 24.2607 13.512C24.2607 13.384 24.3088 13.272 24.4048 13.176C24.5008 13.064 24.6208 13.008 24.7648 13.008H27.3328C27.5408 13.008 27.7008 13.056 27.8128 13.152C27.9248 13.232 28.0288 13.336 28.1248 13.464C28.2368 13.736 28.4128 14 28.6528 14.256C28.9088 14.512 29.2528 14.728 29.6848 14.904C30.1168 15.064 30.6528 15.144 31.2928 15.144C32.3328 15.144 33.1088 14.976 33.6208 14.64C34.1488 14.304 34.4128 13.848 34.4128 13.272C34.4128 12.856 34.2688 12.52 33.9808 12.264C33.7088 12.008 33.2688 11.776 32.6608 11.568C32.0688 11.36 31.2768 11.136 30.2848 10.896C29.0848 10.64 28.0608 10.312 27.2128 9.912C26.3808 9.496 25.7488 8.968 25.3168 8.328C24.9008 7.672 24.6928 6.864 24.6928 5.904C24.6928 4.944 24.9568 4.096 25.4848 3.36C26.0128 2.608 26.7568 2.024 27.7168 1.608C28.6768 1.176 29.8208 0.959999 31.1488 0.959999C32.2208 0.959999 33.1648 1.104 33.9808 1.392C34.8128 1.68 35.5008 2.056 36.0448 2.52C36.6048 2.984 37.0288 3.48 37.3168 4.008C37.6048 4.536 37.7568 5.048 37.7728 5.544C37.7728 5.672 37.7248 5.792 37.6288 5.904C37.5328 6 37.4128 6.048 37.2688 6.048H34.5808C34.4208 6.048 34.2768 6.016 34.1488 5.952C34.0208 5.888 33.9168 5.776 33.8368 5.616C33.7408 5.2 33.4528 4.84 32.9728 4.536C32.5088 4.216 31.9008 4.056 31.1488 4.056C30.3648 4.056 29.7408 4.2 29.2768 4.488C28.8288 4.776 28.6048 5.216 28.6048 5.808C28.6048 6.192 28.7168 6.52 28.9408 6.792C29.1808 7.048 29.5728 7.28 30.1168 7.488C30.6768 7.68 31.4128 7.896 32.3248 8.136C33.7328 8.424 34.8768 8.768 35.7568 9.168C36.6368 9.568 37.2848 10.088 37.7008 10.728C38.1168 11.352 38.3248 12.144 38.3248 13.104C38.3248 14.176 38.0208 15.096 37.4128 15.864C36.8208 16.632 35.9968 17.224 34.9408 17.64C33.9008 18.04 32.6848 18.24 31.2928 18.24ZM41.501 18C41.325 18 41.181 17.944 41.069 17.832C40.957 17.72 40.901 17.576 40.901 17.4V1.8C40.901 1.624 40.957 1.48 41.069 1.368C41.181 1.256 41.325 1.2 41.501 1.2H44.045C44.221 1.2 44.365 1.256 44.477 1.368C44.589 1.48 44.645 1.624 44.645 1.8V7.272L49.589 1.656C49.653 1.56 49.757 1.464 49.901 1.368C50.061 1.256 50.269 1.2 50.525 1.2H53.429C53.573 1.2 53.693 1.256 53.789 1.368C53.885 1.464 53.933 1.576 53.933 1.704C53.933 1.816 53.901 1.912 53.837 1.992L47.669 9.24L54.293 17.208C54.357 17.272 54.389 17.368 54.389 17.496C54.389 17.624 54.341 17.744 54.245 17.856C54.149 17.952 54.029 18 53.885 18H50.885C50.597 18 50.381 17.936 50.237 17.808C50.093 17.68 49.997 17.592 49.949 17.544L44.645 11.4V17.4C44.645 17.576 44.589 17.72 44.477 17.832C44.365 17.944 44.221 18 44.045 18H41.501ZM63.2338 18.24C61.8258 18.24 60.5938 18.008 59.5378 17.544C58.4818 17.064 57.6658 16.336 57.0898 15.36C56.5138 14.368 56.2258 13.112 56.2258 11.592V1.8C56.2258 1.624 56.2818 1.48 56.3938 1.368C56.5058 1.256 56.6498 1.2 56.8258 1.2H59.4418C59.6178 1.2 59.7618 1.256 59.8738 1.368C59.9858 1.48 60.0418 1.624 60.0418 1.8V11.568C60.0418 12.752 60.3218 13.632 60.8818 14.208C61.4418 14.784 62.2258 15.072 63.2338 15.072C64.2258 15.072 65.0018 14.784 65.5618 14.208C66.1218 13.632 66.4018 12.752 66.4018 11.568V1.8C66.4018 1.624 66.4578 1.48 66.5698 1.368C66.6978 1.256 66.8418 1.2 67.0018 1.2H69.6418C69.8018 1.2 69.9378 1.256 70.0498 1.368C70.1618 1.48 70.2178 1.624 70.2178 1.8V11.592C70.2178 13.112 69.9298 14.368 69.3538 15.36C68.7778 16.336 67.9698 17.064 66.9297 17.544C65.8898 18.008 64.6578 18.24 63.2338 18.24ZM79.6678 18.24C78.1318 18.24 76.8438 18.016 75.8038 17.568C74.7798 17.12 74.0038 16.536 73.4758 15.816C72.9478 15.096 72.6678 14.328 72.6357 13.512C72.6357 13.384 72.6838 13.272 72.7798 13.176C72.8758 13.064 72.9958 13.008 73.1398 13.008H75.7078C75.9158 13.008 76.0758 13.056 76.1878 13.152C76.2998 13.232 76.4038 13.336 76.4998 13.464C76.6118 13.736 76.7878 14 77.0278 14.256C77.2838 14.512 77.6278 14.728 78.0598 14.904C78.4918 15.064 79.0278 15.144 79.6678 15.144C80.7078 15.144 81.4838 14.976 81.9958 14.64C82.5238 14.304 82.7878 13.848 82.7878 13.272C82.7878 12.856 82.6438 12.52 82.3558 12.264C82.0838 12.008 81.6438 11.776 81.0358 11.568C80.4438 11.36 79.6518 11.136 78.6598 10.896C77.4598 10.64 76.4358 10.312 75.5878 9.912C74.7558 9.496 74.1238 8.968 73.6918 8.328C73.2758 7.672 73.0678 6.864 73.0678 5.904C73.0678 4.944 73.3318 4.096 73.8598 3.36C74.3878 2.608 75.1318 2.024 76.0918 1.608C77.0518 1.176 78.1958 0.959999 79.5238 0.959999C80.5958 0.959999 81.5398 1.104 82.3558 1.392C83.1878 1.68 83.8758 2.056 84.4198 2.52C84.9798 2.984 85.4038 3.48 85.6918 4.008C85.9798 4.536 86.1318 5.048 86.1478 5.544C86.1478 5.672 86.0998 5.792 86.0038 5.904C85.9078 6 85.7878 6.048 85.6438 6.048H82.9558C82.7958 6.048 82.6518 6.016 82.5238 5.952C82.3958 5.888 82.2918 5.776 82.2118 5.616C82.1158 5.2 81.8278 4.84 81.3478 4.536C80.8838 4.216 80.2758 4.056 79.5238 4.056C78.7398 4.056 78.1158 4.2 77.6518 4.488C77.2038 4.776 76.9798 5.216 76.9798 5.808C76.9798 6.192 77.0918 6.52 77.3158 6.792C77.5558 7.048 77.9478 7.28 78.4918 7.488C79.0518 7.68 79.7878 7.896 80.6998 8.136C82.1078 8.424 83.2518 8.768 84.1318 9.168C85.0118 9.568 85.6598 10.088 86.0758 10.728C86.4918 11.352 86.6998 12.144 86.6998 13.104C86.6998 14.176 86.3958 15.096 85.7878 15.864C85.1958 16.632 84.3718 17.224 83.3158 17.64C82.2758 18.04 81.0598 18.24 79.6678 18.24ZM89.876 18C89.7 18 89.556 17.944 89.444 17.832C89.332 17.72 89.276 17.576 89.276 17.4V1.8C89.276 1.624 89.332 1.48 89.444 1.368C89.556 1.256 89.7 1.2 89.876 1.2H92.588C92.764 1.2 92.908 1.256 93.02 1.368C93.132 1.48 93.188 1.624 93.188 1.8V17.4C93.188 17.576 93.132 17.72 93.02 17.832C92.908 17.944 92.764 18 92.588 18H89.876Z" fill="#00BBF6"/>
</svg>
