<svg width="140" height="140" viewBox="0 0 140 140" fill="none" xmlns="http://www.w3.org/2000/svg">
<path d="M121.492 80.0093C128.029 74.0445 132.136 65.4446 132.136 55.8845C132.136 37.8724 117.568 23.2713 99.5974 23.2713C86.2174 23.2713 74.7245 31.3683 69.7266 42.9391C75.8579 49.8727 79.5866 58.9867 79.5866 68.9588C79.5866 77.3219 76.9022 85.4303 72.0555 92.1013C76.6344 96.1506 80.4108 101.045 83.1689 106.475H140C137.637 95.3415 130.812 85.8629 121.492 80.0093Z" fill="#414141"/>
<path d="M0 119.55H80.8033C78.4417 108.417 71.6168 98.9376 62.2953 93.084C68.8338 87.1192 72.9392 78.5193 72.9392 68.9588C72.9392 50.9471 58.3717 36.3456 40.4011 36.3456C22.4324 36.3456 7.86409 50.9471 7.86409 68.9588C7.86409 78.5193 11.9687 87.1192 18.5076 93.084C9.18615 98.9376 2.36163 108.416 0 119.55Z" fill="#414141"/>
</svg>
